<svg id="APR_Tag" data-name="APR Tag" xmlns="http://www.w3.org/2000/svg" width="11.985" height="12" viewBox="0 0 11.985 12">
  <path id="Path_5887" data-name="Path 5887" d="M7.692,9v1.262a.613.613,0,0,0,.568-.631.639.639,0,0,0-.177-.453A.626.626,0,0,0,7.692,9" transform="translate(-1.887 -2.207)" fill="#6b21be"/>
  <path id="Path_5888" data-name="Path 5888" d="M6,7.018a.613.613,0,0,0,.568.631V6.389a.518.518,0,0,0-.391.177A.663.663,0,0,0,6,7.018" transform="translate(-1.472 -1.567)" fill="#6b21be"/>
  <path id="Path_5889" data-name="Path 5889" d="M11.758,1.226a1.041,1.041,0,0,0-1-1L6.672,0a1.018,1.018,0,0,0-.808.3L.313,5.856v0l-.008.008A1.056,1.056,0,0,0,.313,7.36l4.315,4.327.008.008a1.057,1.057,0,0,0,1.494-.008l5.552-5.552a1.111,1.111,0,0,0,.3-.808ZM5.806,8.771v.614a.353.353,0,0,1-.706,0V8.771a1.3,1.3,0,0,1-1.186-.83.352.352,0,0,1,.644-.283c0,.011.008.02.012.031A.615.615,0,0,0,5.1,8.08V6.79A1.318,1.318,0,0,1,3.823,5.453,1.383,1.383,0,0,1,4.2,4.506a1.224,1.224,0,0,1,.9-.391V3.5a.353.353,0,0,1,.706,0v.617a1.308,1.308,0,0,1,1.186.83.352.352,0,0,1-.656.252A.615.615,0,0,0,5.8,4.806V6.068a1.236,1.236,0,0,1,.9.4,1.359,1.359,0,0,1,.377.946A1.321,1.321,0,0,1,5.806,8.771M9.17,3.711a.9.9,0,1,1,.9-.9.9.9,0,0,1-.9.9" transform="translate(0 0)" fill="#6b21be"/>
</svg>
