<svg id="Layer_1" data-name="Layer 1" xmlns="http://www.w3.org/2000/svg" xmlns:xlink="http://www.w3.org/1999/xlink" viewBox="0 0 247.15 158.23"><defs><style>.cls-1{fill:none;}.cls-2{clip-path:url(#clip-path);}.cls-3{fill:#ff5100;}.cls-4{fill:#fff;}.cls-5{fill:#773dbd;}.cls-6{fill:#2a7de1;}.cls-7{fill:#ea0029;}.cls-8{fill:#ffc600;}</style><clipPath id="clip-path" transform="translate(1.89 4.51)"><rect class="cls-1" width="243.37" height="153.72" rx="10.25" ry="10.25"/></clipPath></defs><title>BLCC</title><g class="cls-2"><rect class="cls-3" x="1.89" y="4.51" width="243.37" height="153.72" rx="10.25" ry="10.25"/><path class="cls-4" d="M95.13,91.75c.19-13.29,2.39-29,6.53-38.93l17.27,3.54c-6.56,10.7-11,24.67-13.35,37L95.13,91.75Zm.59,13.1c-.33-2.76-.53-5.89-.59-9.25l9.77,1.58c-.51,3.16-.88,6.18-1.1,8.94l-8.08-1.27Z" transform="translate(1.89 4.51)"/><path class="cls-4" d="M20.25,82V75H15.63v29.62H28.06v-4.37H20.25V82Zm59.36,0a3.8,3.8,0,0,1,3.91-3.08c2.07,0,3.21.91,4.25,2.7L88,82l.16.28L88.6,82l3.29-2.1-.33-.6a8.85,8.85,0,0,0-8-4.75c-4.36,0-8.39,2.84-8.64,7.45,0,.15,0,.3,0,.45,0,4.53,3.29,6.39,6.59,7.88l1.72.74C86,92.28,88.05,93.23,88.05,96A5,5,0,0,1,83,100.75,5.09,5.09,0,0,1,78,96.14l-.12-.82-4.54,1.26.14.67a9.67,9.67,0,0,0,19.16-1.57c0-5-3.54-7-7.23-8.58l-1.87-.82a13.4,13.4,0,0,1-2.77-1.52,2.78,2.78,0,0,1-1.23-2.23,3.43,3.43,0,0,1,0-.56M33.83,82A10.86,10.86,0,0,1,49,82h0a10.87,10.87,0,1,1-15.15,0Zm-5.69,0a15.13,15.13,0,0,0-2.22,7.89,15.49,15.49,0,0,0,31,0A15.13,15.13,0,0,0,54.68,82h0a15.53,15.53,0,0,0-26.53,0m36.51-48.7H50.86v38H64.65v-38ZM73.59,75H55.23v4.37h6.84v25.25h4.62V79.38h6.9V75ZM87.35,48.88v9H93.6c-.66,2.32-3.43,3.33-5.59,3.33-4.48,0-7.1-3.93-7.1-8.11,0-4.58,2.72-8.82,7.65-8.82a5.78,5.78,0,0,1,5.24,2.93l12.89-4.74c-3-6.49-12-9.77-18.63-9.77-11.94,0-21,7.45-21,19.84C67,64.69,76.38,71.84,88,71.84A23.07,23.07,0,0,0,95.1,70.7,84.68,84.68,0,0,1,100,52.13l.58-1.39,8,1.64c.05-1.13.07-2.3.09-3.5Zm-39,11.88c0-4.53-2.62-7.55-6.75-9v-.3c3.33-1.06,5-4.33,5-7.66C46.55,35,39,33.27,31.69,33.27H15.63v38H34.41c6.65,0,13.9-2.67,13.9-10.48ZM28.42,42.43h1c2,0,4.58-.2,4.58,2.62,0,2.62-2.27,2.82-4.28,2.82H28.42V42.43Zm0,19.74V55.88h1.36c2.21,0,5.74-.05,5.74,3.12S32.25,62.17,30,62.17Z" transform="translate(1.89 4.51)"/><path class="cls-4" d="M107.59,102a1.68,1.68,0,1,1-1.69,1.67,1.68,1.68,0,0,1,1.69-1.67Zm0,3.12a1.44,1.44,0,1,0-1.38-1.45,1.39,1.39,0,0,0,1.38,1.45Zm-.65-2.42h.76c.47,0,.69.18.69.56a.51.51,0,0,1-.52.54l.56.86h-.33l-.53-.84h-.33v.84h-.3v-2Zm.3.87h.32c.27,0,.52,0,.52-.32s-.22-.3-.43-.3h-.41v.62Z" transform="translate(1.89 4.51)"/><rect class="cls-5" y="1.38" width="127.59" height="24.83"/><rect class="cls-6" x="127.63" y="0.69" width="20.38" height="25.45"/><rect class="cls-7" x="191.78" width="55.37" height="26.02"/><rect class="cls-8" x="148" width="43.78" height="25.93"/><path class="cls-4" d="M102.78,130.86h3.83V138h3.22v3.39h-7Z" transform="translate(1.89 4.51)"/><path class="cls-4" d="M110.84,130.86h3.84v10.56h-3.84Z" transform="translate(1.89 4.51)"/><path class="cls-4" d="M126.64,130.86l-4.08,10.56h-3.25l-4.09-10.56h4l1.4,4.8a5.67,5.67,0,0,1,.26,1.57H121a5.67,5.67,0,0,1,.26-1.57l1.4-4.8Z" transform="translate(1.89 4.51)"/><path class="cls-4" d="M127.09,130.86h7.1v2.89H131v1h2.95v2.75H131v1h3.34v2.89h-7.21Z" transform="translate(1.89 4.51)"/><path class="cls-4" d="M146.68,136v-.08a2.14,2.14,0,0,0,1.38-2.13c0-2.44-2.08-2.93-4.13-2.93h-4.46v10.56h5.22c1.85,0,3.86-.74,3.86-2.91A2.55,2.55,0,0,0,146.68,136ZM143,133.42h.27c.56,0,1.27,0,1.27.73s-.63.78-1.19.78H143Zm.44,5.49H143v-1.75h.38c.62,0,1.6,0,1.6.87S144.09,138.91,143.46,138.91Zm5.8,2.52h3.84V130.87h-3.84Zm10.16-3.73h1.73a1.56,1.56,0,0,1-1.55.92,2.07,2.07,0,0,1-2-2.25,2.22,2.22,0,0,1,2.12-2.45,1.61,1.61,0,0,1,1.46.81l3.58-1.31c-.83-1.81-3.34-2.71-5.18-2.71-3.31,0-5.84,2.06-5.84,5.5s2.6,5.37,5.82,5.37a6.17,6.17,0,0,0,4.47-1.87c1.25-1.34,1.25-2.78,1.27-4.5h-5.91Z" transform="translate(1.89 4.51)"/><path class="cls-4" d="M174.4,132.88a1.8,1.8,0,0,0-1.69-1,1.67,1.67,0,0,0-1.77,1.5c0,.83.82,1.26,1.47,1.51l.76.3c1.5.59,2.62,1.41,2.62,3.18a3.26,3.26,0,0,1-3.38,3.29,3.3,3.3,0,0,1-3.26-3l1.33-.28a2,2,0,1,0,4,0c0-1.14-.91-1.63-1.82-2l-.73-.3c-1.2-.52-2.29-1.21-2.29-2.68a2.88,2.88,0,0,1,3.11-2.73,3,3,0,0,1,2.71,1.6Z" transform="translate(1.89 4.51)"/><path class="cls-4" d="M178.38,138.79l-1.21,2.64h-1.41l5-11,5,11h-1.41l-1.21-2.64Zm2.42-5.48-1.88,4.27h3.76Z" transform="translate(1.89 4.51)"/><path class="cls-4" d="M188.74,138.69l3.13-7.81h1.45L188.74,142l-4.59-11.11h1.44Z" transform="translate(1.89 4.51)"/><path class="cls-4" d="M194.42,130.88h5.67v1.2h-4.35V135H200v1.21h-4.23v4h4.35v1.2h-5.67Z" transform="translate(1.89 4.51)"/><path class="cls-4" d="M206.59,140.23h3.2v1.2h-4.52V130.88h1.32Z" transform="translate(1.89 4.51)"/><path class="cls-4" d="M220.07,136.15a5.53,5.53,0,0,1-11.06,0,5.53,5.53,0,0,1,11.06,0Zm-1.32,0a4.22,4.22,0,1,0-8.43,0,4.22,4.22,0,1,0,8.43,0Z" transform="translate(1.89 4.51)"/><path class="cls-4" d="M223.27,141.43H222v-9.35h-2.51v-1.2h6.33v1.2h-2.51Z" transform="translate(1.89 4.51)"/><path class="cls-4" d="M230.9,132.88a1.8,1.8,0,0,0-1.69-1,1.66,1.66,0,0,0-1.76,1.5c0,.83.81,1.26,1.47,1.51l.75.3c1.5.59,2.62,1.41,2.62,3.18a3.26,3.26,0,0,1-3.37,3.29,3.3,3.3,0,0,1-3.27-3l1.33-.28a2,2,0,1,0,4,0c0-1.14-.91-1.63-1.82-2l-.72-.3c-1.21-.52-2.3-1.21-2.3-2.68a2.88,2.88,0,0,1,3.11-2.73,3,3,0,0,1,2.71,1.6Z" transform="translate(1.89 4.51)"/></g></svg>