<svg xmlns="http://www.w3.org/2000/svg" xmlns:xlink="http://www.w3.org/1999/xlink" width="55" height="60" viewBox="0 0 55 60"><defs><style>.a{fill:#ff5a00;}.b{clip-path:url(#a);}</style><clipPath id="a"><rect class="a" width="55" height="60" transform="translate(0 0)"/></clipPath></defs><g class="b"><path class="a" d="M-487.5,47.192c-4.144-12.107-7.279-27.078-6.813-37.438l16.55-2.5c-2.378,11.864-1.788,25.988.094,37.915Zm4.78,11.677a87.749,87.749,0,0,1-3.526-8.185l9.216-1.795c.572,3.039,1.221,5.89,1.918,8.466Z" transform="translate(530.115 -7.258)"/><path class="a" d="M-997.008,234.616l-.9-2.385.023,0-.4-1.164c-.977-2.858-1.96-6.07-2.867-9.457a11.963,11.963,0,0,0-4.789-.869l-.111-.31c2.965-2.327,3.439-6.309,2.219-9.72-3.218-8.991-11.44-8-18.861-5.253l-16.214,6,13.949,38.969,18.959-7.017c3.9-1.444,7.668-3.9,9.58-7.276-.2-.5-.392-1-.587-1.516m-25.621-18.53.965-.357c2.031-.752,4.552-1.918,5.587.972.963,2.691-1.251,3.744-3.286,4.5l-1.269.47Zm8.827,19.678-1.575.582-2.313-6.46,1.371-.507c2.235-.828,5.776-2.2,6.942,1.06,1.146,3.2-2.138,4.478-4.425,5.324" transform="translate(1038.909 -190.426)"/></g></svg>