<svg xmlns="http://www.w3.org/2000/svg" width="24.016" height="24"
                        viewBox="0 0 24.016 24" class="icon mini-profile-icon" aria-hidden="true">
                        <path
                            d="M20.272,3.3a12.005,12.005,0,1,0-.014,17.425l.017-.014c.142-.137.284-.278.42-.421a.3.3,0,0,0,.1-.095,12.006,12.006,0,0,0-.525-16.9ZM9.642,7.117A3.319,3.319,0,0,1,12,6.139h0a3.343,3.343,0,1,1-2.364.978Zm5.241,8.136a7.658,7.658,0,0,1,4.145,4.121,10.12,10.12,0,0,1-14.046,0A7.618,7.618,0,0,1,14.883,15.253Zm2.285-5.179a5.182,5.182,0,1,0-8.49,3.4,9.425,9.425,0,0,0-4.988,4.4,10.167,10.167,0,0,1,8.316-16.01h.013a10.17,10.17,0,0,1,8.327,16.01,9.42,9.42,0,0,0-4.987-4.4A5.148,5.148,0,0,0,17.168,10.074Z"
                            transform="translate(-0.001 -0.01)" />
                    </svg>